<svg xmlns="http://www.w3.org/2000/svg" width="120.815" height="28" viewBox="0 0 120.815 28">
  <g id="ESPRO_Logo" data-name="ESPRO Logo" transform="translate(-132.052 -143.893)">
    <path id="Path_2" data-name="Path 2" d="M149.092,145.5h-16.35a.649.649,0,0,0-.69.722v25.428a.65.65,0,0,0,.69.724h16.35a.649.649,0,0,0,.688-.724v-1.869a.649.649,0,0,0-.688-.724h-13.3V160.41h10.933a.648.648,0,0,0,.688-.721v-1.871a.649.649,0,0,0-.688-.724H135.794v-8.275h13.3a.649.649,0,0,0,.688-.723v-1.871A.649.649,0,0,0,149.092,145.5Z" transform="translate(0 -1.046)" fill="#221f20"/>
    <path id="Path_3" data-name="Path 3" d="M205.436,157.187l-5.911-1.87c-2.827-.909-3.981-2.113-3.981-4.155,0-2.438,2.132-3.953,5.563-3.953,3.329,0,5.549,1.53,6.422,4.427a.75.75,0,0,0,.741.623H210.4a.672.672,0,0,0,.528-.221.765.765,0,0,0,.154-.643c-.913-4.767-4.548-7.5-9.973-7.5-5.565,0-9.3,3-9.3,7.455,0,3.592,1.958,5.964,5.987,7.253l5.916,1.871h0c2.762.873,3.94,2.115,3.94,4.154,0,2.474-2.206,3.951-5.9,3.951s-6.009-1.489-6.892-4.424a.746.746,0,0,0-.742-.624h-2.128a.67.67,0,0,0-.524.219.769.769,0,0,0-.158.642c.926,4.838,4.635,7.5,10.444,7.5,5.857,0,9.641-2.926,9.641-7.454C211.387,160.869,209.385,158.429,205.436,157.187Z" transform="translate(-38.596)" fill="#221f20"/>
    <path id="Path_4" data-name="Path 4" d="M273.492,145.5h-9.8a.649.649,0,0,0-.688.722v25.428a.649.649,0,0,0,.688.724h2.365a.649.649,0,0,0,.688-.724v-7.878h6.745c5.891,0,9.136-3.244,9.136-9.135S279.383,145.5,273.492,145.5Zm0,14.957h-6.745V148.819h6.745c3.478,0,5.394,2.067,5.394,5.821S276.97,160.46,273.492,160.46Z" transform="translate(-85.317 -1.046)" fill="#221f20"/>
    <path id="Path_5" data-name="Path 5" d="M412.25,143.9a14,14,0,1,0,14.051,14A14.041,14.041,0,0,0,412.25,143.9Zm0,24.358a10.359,10.359,0,1,1,10.4-10.359A10.389,10.389,0,0,1,412.25,168.253Z" transform="translate(-173.433 -0.001)" fill="#221f20"/>
    <path id="Path_6" data-name="Path 6" d="M349.549,164.563c-.363-.628-1.372-2.357-2.085-3.53a7.4,7.4,0,0,0,5.172-7.144c0-5.251-3.415-8.386-9.134-8.386h-9.457a.65.65,0,0,0-.691.722v25.428a.651.651,0,0,0,.691.724h2.362a.649.649,0,0,0,.688-.724V162.28h6.686l1.617,2.633,4.056,6.919a.947.947,0,0,0,.805.545h2.771a.662.662,0,0,0,.634-.3.646.646,0,0,0-.062-.679Zm-.653-10.674c0,3.178-2.016,5.075-5.394,5.075h-6.407V148.817H343.5C346.879,148.817,348.9,150.713,348.9,153.889Z" transform="translate(-131.152 -1.046)" fill="#221f20"/>
  </g>
</svg>
